HIERARCHY
ROOT CG
{
	OFFSET -0.000000 -0.000000 27.772259
	CHANNELS 6 Xposition Yposition Zposition Xrotation Yrotation Zrotation
	JOINT Pelvis
	{
		OFFSET 0.000000 0.000000 0.000000
		CHANNELS 3 Xrotation Yrotation Zrotation
		JOINT Spine
		{
			OFFSET 0.000021 -10.490843 -0.495483
			CHANNELS 3 Xrotation Yrotation Zrotation
			JOINT Spine1
			{
				OFFSET 0.000071 -22.678980 0.018061
				CHANNELS 3 Xrotation Yrotation Zrotation
				JOINT Spine2
				{
					OFFSET 0.000071 -22.678967 0.018061
					CHANNELS 3 Xrotation Yrotation Zrotation
					JOINT Spine3
					{
						OFFSET 0.000071 -22.678982 0.018059
						CHANNELS 3 Xrotation Yrotation Zrotation
						JOINT Neck
						{
							OFFSET 0.000069 -22.678986 -1.289251
							CHANNELS 3 Xrotation Yrotation Zrotation
							JOINT Neck1
							{
								OFFSET 0.000051 -16.255905 0.012947
								CHANNELS 3 Xrotation Yrotation Zrotation
								JOINT Head
								{
									OFFSET 0.000033 -10.784607 -0.287502
									CHANNELS 3 Xrotation Yrotation Zrotation
									JOINT Jaw01
									{
										OFFSET 0.000003 7.782959 5.073944
										CHANNELS 3 Xrotation Yrotation Zrotation
										JOINT Jaw02
										{
											OFFSET 0.000129 -34.927139 -18.883980
											CHANNELS 3 Xrotation Yrotation Zrotation
											End Site
											{
												OFFSET -0.000200 8.372803 -38.812450
											}
										}
									}
									JOINT Nose
									{
										OFFSET 0.000090 -25.700912 7.222265
										CHANNELS 3 Xrotation Yrotation Zrotation
										End Site
										{
											OFFSET -0.000092 0.641281 -21.715439
										}
									}
									JOINT L_EyeSocket
									{
										OFFSET 7.352397 -19.832687 14.164183
										CHANNELS 3 Xrotation Yrotation Zrotation
										JOINT L_Eye
										{
											OFFSET -0.000868 -0.001053 0.016003
											CHANNELS 3 Xrotation Yrotation Zrotation
											End Site
											{
												OFFSET -0.001505 -0.001846 0.027969
											}
										}
										JOINT L_Eyelid_Top
										{
											OFFSET -0.001004 -0.002625 0.032516
											CHANNELS 3 Xrotation Yrotation Zrotation
											End Site
											{
												OFFSET -0.013218 0.005753 0.024086
											}
										}
										JOINT L_Eyelid_Bottom
										{
											OFFSET -0.001194 -0.002777 0.035381
											CHANNELS 3 Xrotation Yrotation Zrotation
											End Site
											{
												OFFSET -0.010032 0.008636 -0.024754
											}
										}
									}
									JOINT R_EyeSocket
									{
										OFFSET -7.352180 -19.832779 14.164206
										CHANNELS 3 Xrotation Yrotation Zrotation
										JOINT R_Eye
										{
											OFFSET 0.000875 -0.001068 0.015991
											CHANNELS 3 Xrotation Yrotation Zrotation
											End Site
											{
												OFFSET 0.001505 -0.001846 0.027962
											}
										}
										JOINT R_Eyelid_Top
										{
											OFFSET 0.001021 -0.002625 0.032516
											CHANNELS 3 Xrotation Yrotation Zrotation
											End Site
											{
												OFFSET 0.013214 0.005753 0.024078
											}
										}
										JOINT R_Eyelid_Bottom
										{
											OFFSET 0.001170 -0.002762 0.035366
											CHANNELS 3 Xrotation Yrotation Zrotation
											End Site
											{
												OFFSET 0.010029 0.008636 -0.024746
											}
										}
									}
								}
								JOINT Neck_Fat
								{
									OFFSET 0.000078 -9.595100 -17.491512
									CHANNELS 3 Xrotation Yrotation Zrotation
									End Site
									{
										OFFSET -0.000091 15.369423 -0.000007
									}
								}
							}
						}
						JOINT L_Clavicle
						{
							OFFSET 4.567149 -11.666077 -3.750029
							CHANNELS 3 Xrotation Yrotation Zrotation
							JOINT L_UpperArm
							{
								OFFSET 20.725664 0.000023 -0.000032
								CHANNELS 3 Xrotation Yrotation Zrotation
								JOINT L_Forearm
								{
									OFFSET 5.265114 -0.585732 -20.155697
									CHANNELS 3 Xrotation Yrotation Zrotation
									JOINT L_Hand
									{
										OFFSET 2.653055 -10.877701 -16.383667
										CHANNELS 3 Xrotation Yrotation Zrotation
										JOINT L_Finger0
										{
											OFFSET -4.206129 -4.328926 -5.034346
											CHANNELS 3 Xrotation Yrotation Zrotation
											JOINT L_Finger01
											{
												OFFSET 0.084278 -1.788536 -4.181065
												CHANNELS 3 Xrotation Yrotation Zrotation
												End Site
												{
													OFFSET 3.261873 3.094681 -0.685818
												}
											}
										}
										JOINT L_Finger1
										{
											OFFSET -1.039085 -6.775749 -3.499998
											CHANNELS 3 Xrotation Yrotation Zrotation
											JOINT L_Finger11
											{
												OFFSET 1.320347 -3.040665 -6.425793
												CHANNELS 3 Xrotation Yrotation Zrotation
												End Site
												{
													OFFSET -1.244606 6.832069 -2.013330
												}
											}
										}
										JOINT L_Finger2
										{
											OFFSET 2.531319 -5.656479 -3.286415
											CHANNELS 3 Xrotation Yrotation Zrotation
											JOINT L_Finger21
											{
												OFFSET 1.991673 -2.402008 -5.957748
												CHANNELS 3 Xrotation Yrotation Zrotation
												End Site
												{
													OFFSET -2.793091 5.800865 -1.944178
												}
											}
										}
										JOINT L_Finger3
										{
											OFFSET 5.474087 -3.302322 -2.655975
											CHANNELS 3 Xrotation Yrotation Zrotation
											JOINT L_Finger31
											{
												OFFSET 2.026951 -1.267525 -5.961166
												CHANNELS 3 Xrotation Yrotation Zrotation
												End Site
												{
													OFFSET -4.375191 4.343643 -1.800320
												}
											}
										}
										JOINT L_Finger4
										{
											OFFSET 4.825741 1.085915 -2.321970
											CHANNELS 3 Xrotation Yrotation Zrotation
											JOINT L_Finger41
											{
												OFFSET 3.358269 -1.829636 -3.744434
												CHANNELS 3 Xrotation Yrotation Zrotation
												End Site
												{
													OFFSET -3.843307 2.955185 -2.267633
												}
											}
										}
									}
								}
							}
						}
						JOINT R_Clavicle
						{
							OFFSET -4.567070 -11.666107 -3.750036
							CHANNELS 3 Xrotation Yrotation Zrotation
							JOINT R_UpperArm
							{
								OFFSET -20.725672 -0.000107 0.000038
								CHANNELS 3 Xrotation Yrotation Zrotation
								JOINT R_Forearm
								{
									OFFSET -5.265284 -0.585785 -20.155655
									CHANNELS 3 Xrotation Yrotation Zrotation
									JOINT R_Hand
									{
										OFFSET -2.653109 -10.877747 -16.383663
										CHANNELS 3 Xrotation Yrotation Zrotation
										JOINT R_Finger0
										{
											OFFSET 4.206133 -4.328873 -5.034388
											CHANNELS 3 Xrotation Yrotation Zrotation
											JOINT R_Finger01
											{
												OFFSET -0.084318 -1.788544 -4.181051
												CHANNELS 3 Xrotation Yrotation Zrotation
												End Site
												{
													OFFSET -3.261902 3.094658 -0.685791
												}
											}
										}
										JOINT R_Finger1
										{
											OFFSET 1.039127 -6.775703 -3.499994
											CHANNELS 3 Xrotation Yrotation Zrotation
											JOINT R_Finger11
											{
												OFFSET -1.320362 -3.040680 -6.425779
												CHANNELS 3 Xrotation Yrotation Zrotation
												End Site
												{
													OFFSET 1.244530 6.832085 -2.013342
												}
											}
										}
										JOINT R_Finger2
										{
											OFFSET -2.531284 -5.656471 -3.286409
											CHANNELS 3 Xrotation Yrotation Zrotation
											JOINT R_Finger21
											{
												OFFSET -1.991699 -2.402023 -5.957708
												CHANNELS 3 Xrotation Yrotation Zrotation
												End Site
												{
													OFFSET 2.793015 5.800865 -1.944197
												}
											}
										}
										JOINT R_Finger3
										{
											OFFSET -5.474079 -3.302345 -2.655947
											CHANNELS 3 Xrotation Yrotation Zrotation
											JOINT R_Finger31
											{
												OFFSET -2.026985 -1.267540 -5.961157
												CHANNELS 3 Xrotation Yrotation Zrotation
												End Site
												{
													OFFSET 4.375137 4.343689 -1.800358
												}
											}
										}
										JOINT R_Finger4
										{
											OFFSET -4.825760 1.085907 -2.321926
											CHANNELS 3 Xrotation Yrotation Zrotation
											JOINT R_Finger41
											{
												OFFSET -3.358299 -1.829666 -3.744390
												CHANNELS 3 Xrotation Yrotation Zrotation
												End Site
												{
													OFFSET 3.843262 2.955223 -2.267666
												}
											}
										}
									}
								}
							}
						}
					}
				}
			}
		}
		JOINT Tail01
		{
			OFFSET -0.000049 10.922326 -0.017508
			CHANNELS 3 Xrotation Yrotation Zrotation
			JOINT Tail02
			{
				OFFSET -0.000100 21.986111 0.000013
				CHANNELS 3 Xrotation Yrotation Zrotation
				JOINT Tail03
				{
					OFFSET -0.000100 21.986118 0.000002
					CHANNELS 3 Xrotation Yrotation Zrotation
					JOINT Tail04
					{
						OFFSET -0.000100 21.986122 0.000004
						CHANNELS 3 Xrotation Yrotation Zrotation
						JOINT Tail05
						{
							OFFSET -0.000100 21.986099 0.000010
							CHANNELS 3 Xrotation Yrotation Zrotation
							JOINT Tail06
							{
								OFFSET -0.000100 21.986099 0.000006
								CHANNELS 3 Xrotation Yrotation Zrotation
								JOINT Tail07
								{
									OFFSET -0.000100 21.986099 0.000000
									CHANNELS 3 Xrotation Yrotation Zrotation
									JOINT Tail08
									{
										OFFSET -0.000100 21.984848 0.000050
										CHANNELS 3 Xrotation Yrotation Zrotation
										JOINT Tail09
										{
											OFFSET -0.000103 21.926025 -1.606211
											CHANNELS 3 Xrotation Yrotation Zrotation
											JOINT Tail10
											{
												OFFSET -0.000105 21.750092 -3.203882
												CHANNELS 3 Xrotation Yrotation Zrotation
												End Site
												{
													OFFSET -0.000053 4.767395 21.461668
												}
											}
										}
									}
								}
							}
						}
					}
				}
			}
		}
		JOINT L_Thigh
		{
			OFFSET 24.788780 0.000110 -0.000034
			CHANNELS 3 Xrotation Yrotation Zrotation
			JOINT L_Calf
			{
				OFFSET 4.720823 4.161343 -21.049969
				CHANNELS 3 Xrotation Yrotation Zrotation
				JOINT L_Foot
				{
					OFFSET 2.154083 21.114443 -11.949743
					CHANNELS 3 Xrotation Yrotation Zrotation
					JOINT L_Toe0
					{
						OFFSET 4.557531 9.251856 -8.735286
						CHANNELS 3 Xrotation Yrotation Zrotation
						End Site
						{
							OFFSET 4.555584 -12.646029 1.018752
						}
					}
					JOINT L_Toe1
					{
						OFFSET 2.346270 5.845610 -11.687160
						CHANNELS 3 Xrotation Yrotation Zrotation
						End Site
						{
							OFFSET 5.347996 -12.298262 1.365644
						}
					}
					JOINT L_Toe2
					{
						OFFSET -0.356033 3.902456 -12.541145
						CHANNELS 3 Xrotation Yrotation Zrotation
						End Site
						{
							OFFSET 3.916277 -12.806116 1.542549
						}
					}
					JOINT L_Toe3
					{
						OFFSET -4.603458 3.183916 -12.435249
						CHANNELS 3 Xrotation Yrotation Zrotation
						End Site
						{
							OFFSET 3.810904 -12.587413 2.957583
						}
					}
					JOINT L_Toe4
					{
						OFFSET -7.144381 6.231468 -10.072764
						CHANNELS 3 Xrotation Yrotation Zrotation
						End Site
						{
							OFFSET 3.810902 -12.587412 2.957585
						}
					}
				}
			}
		}
		JOINT R_Thigh
		{
			OFFSET -24.788780 -0.000112 0.000034
			CHANNELS 3 Xrotation Yrotation Zrotation
			JOINT R_Calf
			{
				OFFSET -4.720936 4.161307 -21.049952
				CHANNELS 3 Xrotation Yrotation Zrotation
				JOINT R_Foot
				{
					OFFSET -2.154314 21.114407 -11.949730
					CHANNELS 3 Xrotation Yrotation Zrotation
					JOINT R_Toe0
					{
						OFFSET -4.557631 9.251808 -8.735270
						CHANNELS 3 Xrotation Yrotation Zrotation
						End Site
						{
							OFFSET -4.555466 -12.646067 1.018756
						}
					}
					JOINT R_Toe1
					{
						OFFSET -2.346346 5.845581 -11.687157
						CHANNELS 3 Xrotation Yrotation Zrotation
						End Site
						{
							OFFSET -5.347878 -12.298304 1.365654
						}
					}
					JOINT R_Toe2
					{
						OFFSET 0.355967 3.902464 -12.541145
						CHANNELS 3 Xrotation Yrotation Zrotation
						End Site
						{
							OFFSET -3.916157 -12.806145 1.542559
						}
					}
					JOINT R_Toe3
					{
						OFFSET 4.603399 3.183960 -12.435266
						CHANNELS 3 Xrotation Yrotation Zrotation
						End Site
						{
							OFFSET -3.810780 -12.587443 2.957591
						}
					}
					JOINT R_Toe4
					{
						OFFSET 7.144300 6.231529 -10.072779
						CHANNELS 3 Xrotation Yrotation Zrotation
						End Site
						{
							OFFSET -3.810781 -12.587446 2.957584
						}
					}
				}
			}
		}
	}
}
MOTION
Frames: 4
Frame Time: 0.033333
-0.004823 -0.000000 47.991329 0.000000 -0.000000 -0.000109 -13.072524 3.623775 -0.218736 14.092851 -2.434397 4.989287 0.782774 -0.814025 -2.333840 -0.390335 -0.607612 -2.309792 -5.810946 -0.648322 -2.336802 4.027329 -0.075604 0.245927 -0.214895 0.022869 0.236120 3.489310 1.333821 2.503413 -9.112549 0.344068 -0.410328 0.000003 -0.000000 0.000000 0.000021 0.000000 -0.000000 -0.000000 0.000000 0.000000 0.000106 -0.000066 0.000014 0.000002 -0.000001 -0.000005 0.000000 -0.000002 0.000008 0.000000 0.000000 0.000000 0.000104 0.000067 -0.000031 0.000003 -0.000001 0.000008 -0.000000 -0.000002 0.000003 -0.113948 -0.000000 -0.000000 0.001343 -13.601238 0.708099 51.600167 -18.894672 -12.433121 -42.085252 10.065238 -8.008860 -28.468109 -0.940830 12.540042 23.168690 40.495789 23.634734 73.197519 -28.850504 49.373607 54.439910 13.061308 -13.769089 57.038910 12.907531 -0.532015 49.052629 21.220201 -10.721041 39.706424 20.342013 -2.365709 27.828366 15.834288 -9.453378 37.792010 34.843660 -8.051465 18.803883 17.629458 -2.380830 68.506032 58.651886 -31.639134 0.000112 -4.019853 -0.519585 26.903289 1.154508 27.257198 -12.598072 -2.332452 3.120427 -60.574277 16.603237 15.740019 4.814056 -45.237808 -32.497060 0.105328 0.100895 -0.045397 31.239991 -13.715057 10.714954 -21.111153 3.975953 2.957316 30.255696 -6.348794 6.450503 -32.351116 14.392797 8.160526 20.872390 11.244912 8.185610 -18.728003 18.089855 5.096511 18.645580 29.682527 0.394802 0.554837 -0.804025 -0.101731 -1.635097 -0.031912 -0.139614 -1.666636 0.373158 -6.124509 -1.899442 0.446290 -4.272663 -0.048368 -0.282855 -1.761269 4.582980 -0.908282 -3.495187 6.507550 -0.726792 -1.531874 7.234213 -0.351021 5.052943 4.731593 1.886784 14.982862 0.560170 4.150211 21.376914 1.073262 11.197957 21.826312 -37.424478 -5.563351 7.392055 26.095617 2.056591 5.645010 -53.457770 1.574536 -27.239474 6.063614 -26.117171 5.604199 11.005836 -7.512147 3.931364 16.303004 9.958536 1.750642 18.236919 15.305001 -15.213579 -6.000208 24.357095 -11.013323 -43.437281 12.315360 19.387991 42.501023 -4.577019 -8.523072 -47.806294 -31.842441 6.218691 45.858293 -26.415149 -5.832991 56.430726 -32.128677 -2.702044 67.673835 -38.171110 -1.613158 74.130946 -37.984591 15.473975 46.840864 -38.432535 2.984161 
0.224247 0.000001 48.575634 0.000000 -0.000000 -0.000109 -13.124965 3.295676 1.092803 14.571645 -1.925745 5.041959 0.754716 -1.106958 -3.190685 -0.264261 -0.900358 -3.152269 -5.686706 -0.947421 -3.184893 3.215877 -0.069590 0.616234 -0.652203 0.042396 0.607643 3.314942 1.628332 2.931150 -9.293822 0.335982 -0.388452 0.000004 -0.000000 0.000000 0.000021 -0.000000 -0.000000 -0.000000 0.000000 -0.000001 0.000106 -0.000066 0.000012 0.000002 -0.000003 -0.000007 -0.000001 -0.000002 0.000003 -0.000000 0.000000 -0.000001 0.000104 0.000067 -0.000038 0.000002 -0.000001 0.000002 -0.000003 -0.000002 -0.000003 -0.101196 -0.000000 -0.000000 0.009644 -14.434112 -1.686506 44.540541 -17.845669 -12.645047 -40.292389 9.531538 -7.829355 -28.118583 0.170538 13.156466 28.541293 39.416967 21.063791 74.166012 -28.762080 50.105291 57.468447 15.066019 -12.588082 56.998007 12.899422 -0.527048 51.442376 22.029563 -11.485948 40.564965 20.719278 -2.569623 29.918380 16.918812 -10.992712 37.310523 34.527549 -7.817765 18.703037 16.987312 -3.638228 73.066727 59.592410 -35.281400 0.000047 -2.782392 -2.553295 28.035787 2.683183 29.032255 -13.365578 -2.496796 3.294027 -62.043881 15.387206 16.424052 4.814054 -45.237811 -32.497060 0.108388 0.103822 -0.046716 31.239994 -13.715059 10.714957 -21.103751 3.976546 2.952479 30.258240 -6.341834 6.454276 -32.343347 14.390140 8.157721 20.872387 11.244915 8.185609 -18.724238 18.086693 5.094961 18.639578 29.681741 0.393459 0.551099 -0.798595 -0.101071 -1.635104 -0.033954 -0.144219 -1.649243 0.372568 -6.126536 -1.737681 0.470461 -4.530416 -0.391801 -0.178216 -2.194357 3.743709 -0.887714 -4.597709 6.143033 -0.674785 -3.426765 7.499356 -0.542550 2.946171 6.115304 1.882651 13.697896 1.640897 4.533470 21.746219 0.755947 12.114078 23.640246 -33.043540 -4.818197 7.904498 23.371019 1.723087 5.104528 -54.938019 2.697155 -27.019247 6.057860 -26.113811 5.603205 10.996573 -7.513622 3.931538 16.301184 9.964669 1.750258 18.235254 15.311061 -15.214392 -6.001384 24.361579 -11.013654 -47.863449 14.134568 17.421617 40.627376 -4.248173 -8.231454 -44.797138 -30.988712 6.851388 45.699337 -24.253674 -5.060719 56.439305 -29.789901 -1.855764 67.466245 -35.551155 -0.903490 73.039106 -35.317225 15.407804 46.355466 -36.230674 3.432961 
0.473340 0.000002 49.137249 0.000000 -0.000000 -0.000109 -13.174856 2.885702 2.563557 15.028134 -1.414747 4.916503 0.719450 -1.393436 -4.034655 0.042826 -1.211874 -3.979955 -5.381269 -1.264986 -4.019247 2.120910 -0.079508 0.992129 -1.294849 0.051787 0.985237 3.104292 1.896779 3.351984 -9.543686 0.331483 -0.376565 0.000003 -0.000000 0.000000 0.000020 0.000000 0.000000 0.000000 0.000000 -0.000001 0.000106 -0.000066 0.000012 0.000005 -0.000001 -0.000005 -0.000001 -0.000001 0.000004 -0.000001 0.000000 0.000000 0.000103 0.000067 -0.000035 0.000006 -0.000001 0.000009 -0.000001 -0.000000 -0.000003 -0.088096 -0.000000 -0.000000 0.001536 -14.995670 -2.964813 36.860383 -17.797173 -13.397500 -37.750845 8.784519 -7.546409 -30.202485 3.134881 13.388118 33.418866 36.222129 17.528526 70.161479 -29.056516 47.075904 58.283343 16.863536 -10.238115 52.991784 12.087147 -0.069184 52.170744 21.881732 -11.560443 37.047598 19.146207 -1.770876 31.020479 17.025382 -12.320397 33.361144 31.788032 -5.998149 18.030142 15.189897 -4.876942 67.527348 58.423505 -30.864822 -0.000129 -1.483091 -4.419367 28.747822 4.440253 30.806236 -14.221209 -2.682828 3.485066 -63.532862 14.282055 16.804999 4.814057 -45.237811 -32.497067 0.108387 0.103824 -0.046718 31.239988 -13.715056 10.714957 -21.103748 3.976546 2.952475 30.258868 -6.340857 6.456565 -32.343343 14.390140 8.157718 20.872387 11.244913 8.185613 -18.722541 18.085274 5.094264 18.637588 29.682216 0.393570 0.549687 -0.796552 -0.100824 -1.635079 -0.035474 -0.144637 -1.624289 0.371295 -6.055782 -1.510137 0.481841 -4.960731 -0.547818 -0.081287 -2.562304 2.947415 -0.832112 -5.391513 5.660615 -0.599997 -4.994929 7.246333 -0.898025 0.870761 7.316753 1.602936 11.995073 3.091555 4.723539 21.460057 1.127441 12.975224 24.873630 -28.631118 -3.915708 8.241513 20.161757 1.364101 4.449233 -55.986839 3.706238 -26.714244 6.054298 -26.111750 5.602572 10.996574 -7.513623 3.931539 16.301186 9.964666 1.750254 18.235254 15.311061 -15.214390 -6.002132 24.364350 -11.013868 -52.441817 16.967570 13.839890 39.314514 -4.023579 -8.020928 -40.371496 -30.538121 10.253563 38.764353 -16.401977 -4.521265 49.481780 -21.893249 -1.726361 59.573238 -27.435833 -1.556992 63.244014 -27.184834 13.005893 38.447152 -28.227495 3.109259 
0.740240 0.000003 49.650890 0.000000 -0.000000 -0.000109 -13.215876 2.407068 4.149768 15.447776 -0.902560 4.624573 0.678358 -1.671737 -4.849433 0.477505 -1.531207 -4.777747 -4.948251 -1.590457 -4.824295 0.913611 -0.099448 1.365622 -2.065233 0.052920 1.360864 2.876587 2.124900 3.761369 -9.828428 0.328852 -0.368708 0.000006 -0.000000 -0.000000 0.000020 -0.000000 -0.000000 0.000000 0.000000 -0.000001 0.000107 -0.000066 0.000012 0.000004 -0.000003 -0.000005 0.000001 -0.000002 0.000006 -0.000000 -0.000000 0.000000 0.000104 0.000067 -0.000036 0.000003 0.000000 0.000005 0.000002 0.000000 -0.000007 -0.075569 -0.000001 -0.000001 0.001550 -15.075230 -3.899728 29.184053 -17.612760 -13.961271 -34.694257 7.903214 -7.162752 -33.195590 6.230187 13.604789 36.370826 32.433406 14.855696 63.493124 -29.133506 42.019279 57.393199 18.207129 -7.357341 46.917109 10.793492 0.512528 51.569718 21.095823 -11.180972 31.340900 16.449510 -0.689120 31.211933 16.402426 -13.504351 28.003338 27.649700 -3.834607 16.954912 12.746316 -6.184358 57.775375 55.562646 -23.330453 -0.000297 -0.240377 -6.252835 29.097395 6.368513 32.559925 -14.949464 -2.843492 3.645569 -65.095931 13.186009 16.977096 4.814051 -45.237805 -32.497057 0.108385 0.103821 -0.046717 31.239988 -13.715058 10.714957 -21.103753 3.976543 2.952476 30.258797 -6.341003 6.456232 -32.343343 14.390140 8.157716 20.872377 11.244914 8.185610 -18.723690 18.086235 5.094733 18.636362 29.682510 0.393628 0.549977 -0.796969 -0.100874 -1.635072 -0.036364 -0.141121 -1.594828 0.369702 -5.951723 -1.311915 0.485850 -5.670926 -0.474836 0.004283 -3.029739 2.429853 -0.757648 -5.853586 5.154913 -0.503788 -6.067715 6.302544 -1.336235 -0.997538 7.922700 1.087940 9.907761 4.672485 4.700345 20.372301 2.299844 13.808123 25.397835 -24.237918 -2.950578 8.386090 16.617111 1.011320 3.704336 -56.731428 4.623425 -26.333466 6.052563 -26.110744 5.602245 10.996579 -7.513625 3.931523 16.301184 9.964667 1.750237 18.235260 15.311047 -15.214400 -6.002488 24.365694 -11.013988 -56.126680 19.811063 9.415241 37.366882 -3.699550 -7.699496 -36.057132 -29.243346 14.302716 31.874652 -9.109476 -2.751230 42.731070 -14.497005 -0.236536 52.193826 -19.741796 -0.531382 54.351562 -19.230176 12.685084 31.044559 -20.677371 4.262798 
